<?xml version="1.0" encoding="utf-8"?>
<!-- Generator: Adobe Illustrator 24.3.0, SVG Export Plug-In . SVG Version: 6.00 Build 0)  -->
<svg version="1.1" id="Layer_1" xmlns="http://www.w3.org/2000/svg" xmlns:xlink="http://www.w3.org/1999/xlink" x="0px" y="0px"
	 viewBox="0 0 106 49.7" style="enable-background:new 0 0 106 49.7;" xml:space="preserve">
<style type="text/css">
	.st0{display:none;fill:#140E07;}
	.st1{fill:#FFFFFF;}
	.st2{fill:#4AA8AD;}
	.st3{fill:#DEA558;}
	.st4{fill:#FEFEFE;}
	.st5{font-family:'Roboto-Bold';}
	.st6{font-size:5px;}
	.st7{font-family:'Roboto-Regular';}
</style>
<g id="Layer_1_1_">
	<rect x="-0.8" y="0" class="st0" width="108.7" height="51.4"/>
	<g>
		<g>
			<g>
				<path class="st1" d="M91.1,16.1c-0.2,0.2-0.4,0.3-0.6,0.3c-0.3,0-0.5-0.1-0.6-0.3c-0.2-0.2-0.3-0.4-0.3-0.6
					c0-0.3,0.1-0.5,0.3-0.6c0.2-0.2,0.4-0.2,0.6-0.2c0.3,0,0.4,0.1,0.6,0.3s0.3,0.4,0.3,0.6C91.3,15.8,91.2,16,91.1,16.1z M89.9,15
					c-0.1,0.1-0.2,0.3-0.2,0.5s0.1,0.4,0.2,0.5c0.1,0.1,0.3,0.2,0.5,0.2s0.4-0.1,0.5-0.2c0.1-0.1,0.2-0.3,0.2-0.5S91,15.1,90.9,15
					s-0.3-0.2-0.5-0.2C90.2,14.8,90.1,14.8,89.9,15z M90,16v-1c0.1,0,0.2,0,0.3,0s0.2,0,0.2,0c0.1,0,0.1,0,0.2,0.1s0.1,0.1,0.1,0.2
					c0,0.1,0,0.1-0.1,0.2c0,0-0.1,0.1-0.2,0.1c0.1,0,0.1,0,0.1,0.1c0.1,0.1,0.1,0.1,0.1,0.2V16l0,0l0,0l0,0h-0.2v-0.1
					c0-0.1,0-0.1,0-0.1s0-0.1-0.1-0.1h-0.1h-0.1h-0.1V16H90L90,16z M90.5,15.2c0,0-0.1,0-0.2,0h-0.1v0.3h0.1c0.1,0,0.1,0,0.1,0
					l0.1-0.1C90.6,15.3,90.6,15.2,90.5,15.2z"/>
			</g>
			<g>
				<g>
					<g>
						<path class="st2" d="M16.1,10.3h-1.4c0.8,5.9,1.5,10.2,1.9,15.4h0.5C16.7,19.9,16.5,14.8,16.1,10.3z"/>
						<path class="st1" d="M17,10.3c0.1,4.1,0.4,9.1,0.5,15.4h0.9c-0.1-6.6-0.1-10.9,0-15.4C18.4,10.3,17,10.3,17,10.3z"/>
						<path class="st2" d="M19.2,10.3c-0.1,3.8-0.1,8.8-0.3,15.4h1.4c0.2-6.5,0.2-11.6,0.4-15.4C20.6,10.3,19.2,10.3,19.2,10.3z"/>
						<path class="st3" d="M22.5,10.3c-0.4,4.6-0.8,8.6-1.4,15.4h3.1c-0.2-8-0.3-11.2-0.3-15.4C23.9,10.3,22.5,10.3,22.5,10.3z"/>
						<path class="st2" d="M24.8,10.3c0,4.6-0.3,9.7-0.3,15.4h0.8c0-5.3,0-10.4,0-15.4C25.3,10.3,24.8,10.3,24.8,10.3z"/>
						<path class="st1" d="M26.5,10.3c-0.2,5.4-0.4,9.7-0.9,15.4h1.1c0-5.3,0.3-10.4,0.3-15.4C27,10.3,26.5,10.3,26.5,10.3z"/>
						<path class="st1" d="M27.9,25.7h6.4c-2.7-7-2.9-7.8-4.5-15.4h-2.3C27.8,10.5,28.2,21.2,27.9,25.7z"/>
					</g>
				</g>
				<g>
					<path class="st1" d="M49.5,16.2c-0.3,0-0.7,0.1-1,0.2c-0.2,0.1-0.3,0.1-0.4,0.2v-2h-1.8v7.5H48v-0.3c0.1,0.1,0.3,0.2,0.4,0.2
						c0.3,0.1,0.6,0.2,1,0.2c0.8,0,1.4-0.3,2-0.9c0.5-0.6,0.8-1.3,0.8-2.1c0-0.9-0.3-1.6-0.8-2.2C50.9,16.5,50.2,16.2,49.5,16.2z
						 M50.1,20.3c-0.3,0.3-0.6,0.4-1,0.4s-0.7-0.1-1-0.4s-0.4-0.6-0.4-1.1c0-0.4,0.1-0.8,0.4-1c0.3-0.3,0.6-0.4,1-0.4s0.7,0.1,1,0.4
						s0.4,0.6,0.4,1C50.5,19.7,50.4,20,50.1,20.3z"/>
					<path class="st1" d="M56.6,16.7c-0.1-0.1-0.3-0.2-0.4-0.2c-0.3-0.1-0.7-0.2-1-0.2c-0.8,0-1.4,0.3-2,0.9s-0.8,1.3-0.8,2.2
						c0,0.9,0.3,1.6,0.8,2.1c0.5,0.6,1.2,0.9,2,0.9c0.3,0,0.7-0.1,1-0.2c0.1-0.1,0.3-0.1,0.4-0.2v0.3h1.9v-5.8h-1.9V16.7L56.6,16.7z
						 M56.4,20.3c-0.3,0.3-0.6,0.4-1,0.4s-0.7-0.1-1-0.4S54,19.7,54,19.2s0.1-0.8,0.4-1c0.3-0.3,0.6-0.4,1-0.4s0.7,0.1,1,0.4
						s0.4,0.6,0.4,1C56.8,19.7,56.7,20.1,56.4,20.3z"/>
					<polygon class="st1" points="61.9,19.2 60.6,16.3 58.7,16.3 60.8,21.4 59.6,24 61.7,24 65.3,16.3 63.2,16.3 					"/>
					<path class="st1" d="M70.5,18c0.2-0.1,0.3-0.3,0.3-0.5C71,17.3,71,17,71,16.7c0-0.5-0.2-0.9-0.5-1.2s-0.7-0.6-1.2-0.7
						c-0.3-0.1-0.9-0.1-1.6-0.1h-1.4v7.6h2.4c0.6,0,1.2-0.1,1.5-0.3c0.4-0.2,0.7-0.5,0.9-0.8c0.3-0.4,0.4-0.8,0.4-1.2
						c0-0.5-0.1-0.9-0.4-1.2C71.1,18.4,70.8,18.2,70.5,18z M68.2,17.4v-0.9v-0.2h0.3c0.3,0,0.5,0.1,0.7,0.2c0.1,0.1,0.2,0.3,0.2,0.5
						s-0.1,0.4-0.2,0.5c-0.2,0.1-0.4,0.2-0.7,0.2h-0.2L68.2,17.4L68.2,17.4z M68.2,20.6V19h0.2c0.5,0,0.9,0.1,1.2,0.3
						c0.2,0.2,0.3,0.4,0.3,0.6s-0.1,0.4-0.3,0.5c-0.2,0.1-0.6,0.2-1.1,0.2C68.4,20.6,68.2,20.6,68.2,20.6z"/>
					<path class="st1" d="M75.9,16.8c-0.1-0.1-0.3-0.2-0.4-0.2c-0.3-0.1-0.6-0.2-1-0.2c-0.8,0-1.4,0.3-1.9,0.9s-0.8,1.3-0.8,2.2
						c0,0.8,0.3,1.6,0.8,2.1c0.6,0.6,1.2,0.9,2,0.9c0.3,0,0.7-0.1,0.9-0.2c0.1-0.1,0.3-0.1,0.4-0.2v0.3h1.8v-5.7h-1.8V16.8
						L75.9,16.8z M75.7,20.4c-0.3,0.3-0.6,0.4-1,0.4s-0.7-0.1-1-0.4s-0.4-0.6-0.4-1s0.1-0.8,0.4-1c0.3-0.3,0.6-0.4,1-0.4
						s0.7,0.1,1,0.4s0.4,0.6,0.4,1S76,20.1,75.7,20.4z"/>
					<path class="st1" d="M81.4,16.3c-0.3,0-0.6,0-0.8,0.2c-0.2,0.1-0.3,0.1-0.5,0.3v-0.3h-1.8v5.7h1.8v-2.4c0-0.6,0-0.9,0.1-1
						c0.1-0.3,0.2-0.5,0.3-0.6c0.2-0.1,0.3-0.2,0.5-0.2s0.3,0,0.4,0.1s0.2,0.2,0.2,0.3c0,0.1,0.1,0.4,0.1,1.2v2.5h1.8v-3.7
						c0-0.7-0.2-1.2-0.5-1.5C82.5,16.5,82,16.3,81.4,16.3z"/>
					<polygon class="st1" points="86.7,19.2 89.3,16.4 86.9,16.4 85.8,17.6 85.8,14.6 85.3,14.6 85.3,14.6 83.9,14.6 83.9,22.2 
						85.3,22.2 85.3,22.2 85.8,22.2 85.8,20.7 87.2,22.2 89.6,22.2 					"/>
					<g>
						<polygon class="st1" points="41.2,14.5 38.2,22.2 40.2,22.2 42,17.5 43.9,22.2 45.9,22.2 42.9,14.5 						"/>
						<polygon class="st1" points="42,20.5 42.7,22.2 43.4,22.2 42.3,19.6 41.8,19.6 40.7,22.2 41.4,22.2 						"/>
					</g>
				</g>
			</g>
		</g>
	</g>
	<text transform="matrix(1 0 0 1 29.9211 37.0965)" class="st4 st5 st6">Source of</text>
	<text transform="matrix(1 0 0 1 51.2258 37.0965)" class="st3 st7 st6">Greatness</text>
</g>
</svg>
